# AST/ASF file generated using VICON BodyLanguage
# -----------------------------------------------
:version 1.10
:name VICON
:units
  mass 1.0
  length 0.45
  angle deg
:documentation
   .ast/.asf automatically generated from VICON data using
   VICON BodyBuilder and BodyLanguage model FoxedUp or BRILLIANT.MOD
:root
   order TX TY TZ RX RY RZ
   axis XYZ
   position 0 0 0  
   orientation 0 0 0 
:bonedata
  begin
     id 1 
     name lhipjoint
     direction 0.561001 -0.76473 0.316963 
     length 2.4722 
     axis 0 0 0  XYZ
  end
  begin
     id 2 
     name lfemur
     direction 0.34202 -0.939693 0  
     length 7.59403  
     axis 0 0 20  XYZ
    dof rx ry rz
    limits (-160.0 20.0)
           (-70.0 70.0)
           (-60.0 70.0)
  end
  begin
     id 3 
     name ltibia
     direction 0.34202 -0.939693 0   
     length 7.89655   
     axis 0 0 20   XYZ
    dof rx
    limits (-10.0 170.0)
  end
  begin
     id 4 
     name lfoot
     direction 0.061296 -0.168409 0.98381   
     length 2.73287   
     axis -90 7.62852e-016 20   XYZ
    dof rx rz
    limits (-45.0 90.0)
           (-70.0 20.0)
  end
  begin
     id 5 
     name ltoes
     direction 1.53547e-011 -4.21984e-011 1   
     length 1.37057   
     axis -90 7.62852e-016 20   XYZ
    dof rx
    limits (-90.0 20.0)
  end
  begin
     id 6 
     name rhipjoint
     direction -0.559611 -0.765599 0.317323   
     length 2.46939  
     axis 0 0 0  XYZ 
  end
  begin
     id 7 
     name rfemur
     direction -0.34202 -0.939693 0   
     length 7.53712   
     axis 0 0 -20   XYZ
    dof rx ry rz
    limits (-160.0 20.0)
           (-70.0 70.0)
           (-70.0 60.0)
  end
  begin
     id 8 
     name rtibia
     direction -0.34202 -0.939693 0   
     length 8.12549   
     axis 0 0 -20   XYZ
    dof rx
    limits (-10.0 170.0)
 end
 begin
     id 9 
     name rfoot
     direction -0.066984 -0.184037 0.980634   
     length 2.67541  
     axis -90 -7.62852e-016 -20   XYZ
    dof rx rz
    limits (-45.0 90.0)
           (-20.0 70.0)
  end
  begin
     id 10 
     name rtoes
     direction -1.53549e-011 -4.21786e-011 1   
     length 1.34085   
     axis -90 -7.62852e-016 -20   XYZ
    dof rx
    limits (-90.0 20.0)
  end
  begin
     id 11 
     name lowerback
     direction -0.0522728 0.992594 -0.109658   
     length 2.05633   
     axis 0 0 0   XYZ
    dof rx ry rz
    limits (-20.0 45.0)
           (-30.0 30.0)
           (-30.0 30.0)
  end
  begin
     id 12 
     name upperback
     direction 0.00589338 0.999977 0.00335704   
     length 2.05845   
     axis 0 0 0   XYZ
    dof rx ry rz
    limits (-20.0 45.0)
           (-30.0 30.0)
           (-30.0 30.0)
  end
  begin
     id 13 
     name thorax
     direction 0.0292928 0.998059 0.0549487   
     length 2.09281   
     axis 0 0 0   XYZ
    dof rx ry rz
    limits (-20.0 45.0)
           (-30.0 30.0)
           (-30.0 30.0)
  end
  begin
     id 14 
     name lowerneck
     direction 0.0356368 0.980775 0.191858   
     length 1.84767   
     axis 0 0 0   XYZ
    dof rx ry rz
    limits (-20.0 45.0)
           (-30.0 30.0)
           (-30.0 30.0)
  end
  begin
     id 15 
     name upperneck
     direction -0.0227605 0.98931 -0.14404   
     length 1.89582   
     axis 0 0 0   XYZ
    dof rx ry rz
    limits (-20.0 45.0)
           (-30.0 30.0)
           (-30.0 30.0)
  end
  begin
     id 16
     name head
     direction -0.00932985 0.997511 -0.0698904  
     length 1.90213  
     axis 0 0 0   XYZ
    dof rx ry rz
    limits (-20.0 45.0)
           (-30.0 30.0)
           (-30.0 30.0)
  end
  begin
     id 17 
     name lclavicle
     direction 0.873442 0.479511 0.0846686  
     length 3.41193  
     axis 0 0 0   XYZ
    dof ry rz
    limits (-20.0 10.0)
           (0.0 20.0)
  end
  begin
     id 18 
     name lhumerus
     direction 1 -4.4897e-011 -5.62117e-018   
     length 5.59864   
     axis 180 -30 -90   XYZ
    dof rx ry rz
    limits (-60.0 90.0)
           (-90.0 90.0)
           (-90.0 90.0)
  end
  begin
     id 19
     name lradius
     direction 1 -4.48966e-011 -6.26295e-027   
     length 3.59542   
     axis 180 -30 -90   XYZ
    dof rx
    limits (-10.0 170.0)
  end
  begin
     id 20
     name lwrist
     direction 1 -4.48947e-011 -1.74096e-026   
     length 1.79771   
     axis 1.04567e-014 90 90   XYZ
    dof ry
    limits (-180.0 0.0)
 end
  begin
     id 21 
     name lhand
     direction 1 -4.49085e-011 -3.48469e-026   
     length 0.572014   
     axis 2.22196e-014 90 90   XYZ
    dof rx rz
    limits (-90.0 90.0)
           (-45.0 45.0)
  end
  begin
     id 22 
     name lfingers
     direction 1 -4.48884e-011 -6.96135e-026   
     length 0.461173   
     axis 4.44383e-014 90 90   XYZ
    dof rx
    limits (0.0 90.0)
  end
  begin
     id 23
     name lthumb
     direction 0.707107 -6.34976e-011 0.707107   
     length 0.662154   
     axis -90 45 -5.4397e-014   XYZ
    dof rx rz
    limits (-45.0 45.0)
           (-45.0 45.0)
  end
  begin
     id 24 
     name rclavicle
     direction -0.890242 0.443271 0.104786   
     length 3.46753  
     axis 0 0 0   XYZ 
    dof ry rz
    limits (-10.0 20.0)
           (-20.0 0.0)
  end
  begin
     id 25 
     name rhumerus
     direction -1 -4.48963e-011 -5.41723e-018  
     length 5.8094   
     axis 180 30 90   XYZ
    dof rx ry rz
    limits (-90.0 60.0)
           (-90.0 90.0)
           (-90.0 90.0)
  end
  begin
     id 26 
     name rradius
     direction -1 -4.48958e-011 -6.51059e-027   
     length 3.66953   
     axis 180 30 90   XYZ
    dof rx
    limits (-10.0 170.0)
  end
  begin
     id 27 
     name rwrist
     direction -1 -4.48975e-011 -1.74124e-026   
     length 1.83476   
     axis 1.04567e-014 -90 -90   XYZ
    dof ry
    limits (-180.0 0.0)
  end
  begin
     id 28
     name rhand
     direction -1 -4.49013e-011 -3.48326e-026   
     length 0.57843   
     axis 2.22196e-014 -90 -90   XYZ
    dof rx rz
    limits (-90.0 90.0)
           (-45.0 45.0)
  end
  begin
     id 29
     name rfingers
     direction -1 -4.49023e-011 -6.9669e-026   
     length 0.466345   
     axis 4.44383e-014 -90 -90   XYZ
    dof rx
    limits (0.0 90.0)
  end
  begin
     id 30
     name rthumb
     direction -0.707107 -6.34926e-011 0.707107   
     length 0.669581   
     axis -90 -45 5.4397e-014   XYZ
    dof rx rz
    limits (-45.0 45.0)
           (-45.0 45.0)
  end
:hierarchy
  begin
    root lhipjoint rhipjoint lowerback
    lhipjoint lfemur
    lfemur ltibia
    ltibia lfoot
    lfoot ltoes
    rhipjoint rfemur
    rfemur rtibia
    rtibia rfoot
    rfoot rtoes
    lowerback upperback
    upperback thorax
    thorax lowerneck lclavicle rclavicle
    lowerneck upperneck
    upperneck head
    lclavicle lhumerus
    lhumerus lradius
    lradius lwrist
    lwrist lhand lthumb
    lhand lfingers
    rclavicle rhumerus
    rhumerus rradius
    rradius rwrist
    rwrist rhand rthumb
    rhand rfingers
  end

#!OML:ASF H:\SkateBoarding\Project 1\Capture day 1\Session 1\Skater.ASF
:FULLY-SPECIFIED
:DEGREES
316
root 6.25616 17.5557 12.9518 10.0019 22.1163 1.01529
lowerback 10.0921 -0.586705 -4.66113
upperback -0.00443245 -1.26884 0.944076
thorax -5.55207 -0.481923 3.80574
lowerneck -14.3122 0.491812 4.03999
upperneck 29.5586 -0.962879 2.16729
head 12.1099 0.350145 -0.0099463
rclavicle 5.01559e-014 8.29926e-015
rhumerus -28.6843 -18.231 -82.1391
rradius 29.6055
rwrist -5.12034
rhand -33.0007 -0.567448
rfingers 7.12502
rthumb -6.21486 -30.4563
lclavicle 5.01559e-014 8.29926e-015
lhumerus -38.9796 3.94004 80.4216
lradius 89.2376
lwrist 64.0157
lhand -29.2112 27.9645
lfingers 7.12502
lthumb -2.5557 57.9289
rfemur -52.0713 5.57969 9.34635
rtibia 70.9592
rfoot -13.3045 24.7665
rtoes -1.18485
lfemur 12.2336 -12.0138 -18.308
ltibia 7.94172
lfoot -34.386 -5.1991
ltoes -11.1294
317
root 6.25193 17.5306 13.0352 10.0843 22.0909 0.950058
lowerback 10.3443 -0.582419 -4.59512
upperback 0.106141 -1.2651 0.932835
thorax -5.57917 -0.482964 3.76045
lowerneck -14.3474 0.474801 4.00203
upperneck 29.4109 -0.973034 2.15779
head 12.0577 0.335921 -0.00952553
rclavicle -6.86428e-015 -2.09097e-014
rhumerus -28.5686 -18.3155 -82.2106
rradius 29.5726
rwrist -4.84874
rhand -32.8573 -0.77015
rfingers 7.12502
rthumb -6.07646 -30.663
lclavicle -6.86428e-015 -2.09097e-014
lhumerus -39.2378 3.41809 81.0956
lradius 88.5681
lwrist 63.1861
lhand -29.517 28.42
lfingers 7.12502
lthumb -2.85103 58.3807
rfemur -52.4108 5.63894 9.3742
rtibia 71.2408
rfoot -13.5239 24.7776
rtoes -1.35916
lfemur 11.2504 -11.9867 -18.0691
ltibia 10.1286
lfoot -34.6904 -6.15858
ltoes -10.6136
318
root 6.2476 17.5043 13.1197 10.135 22.0366 0.874797
lowerback 10.6287 -0.568219 -4.5114
upperback 0.229747 -1.24675 0.923212
thorax -5.61211 -0.477247 3.70523
lowerneck -14.3917 0.457481 3.95856
upperneck 29.2874 -0.978673 2.13345
head 12.0171 0.32195 -0.012883
rclavicle -2.49549e-014 -1.26415e-015
rhumerus -28.4363 -18.372 -82.282
rradius 29.5464
rwrist -4.62196
rhand -32.7417 -0.95856
rfingers 7.12502
rthumb -5.96484 -30.8546
lclavicle -2.49549e-014 -1.26415e-015
lhumerus -39.4202 2.86458 81.8006
lradius 87.83
lwrist 62.3602
lhand -29.8048 28.9105
lfingers 7.12502
lthumb -3.12898 58.8672
rfemur -52.7465 5.71545 9.40678
rtibia 71.5228
rfoot -13.7348 24.7818
rtoes -1.54289
lfemur 10.2732 -11.3531 -17.6906
ltibia 12.3308
lfoot -34.4289 -7.55499
ltoes -9.97896
319
root 6.24268 17.4765 13.2053 10.1597 21.9486 0.793278
lowerback 10.9431 -0.539616 -4.42188
upperback 0.362325 -1.20915 0.914541
thorax -5.65407 -0.462021 3.64527
lowerneck -14.4426 0.438515 3.91685
upperneck 29.1887 -0.982259 2.09009
head 11.9875 0.307417 -0.0231733
rclavicle 5.72779e-014 -8.9391e-015
rhumerus -28.2781 -18.3962 -82.3547
rradius 29.5002
rwrist -4.4556
rhand -32.6793 -1.07674
rfingers 7.12502
rthumb -5.90459 -30.9745
lclavicle 5.72779e-014 -8.9391e-015
lhumerus -39.5316 2.26989 82.5306
lradius 87.0301
lwrist 61.54
lhand -30.0731 29.4204
lfingers 7.12502
lthumb -3.38802 59.3732
rfemur -53.0895 5.81289 9.43985
rtibia 71.8109
rfoot -13.9185 24.7816
rtoes -1.71314
lfemur 9.30212 -10.6841 -17.3001
ltibia 14.5933
lfoot -34.0401 -9.00639
ltoes -9.22857
320
root 6.23675 17.4466 13.2921 10.165 21.8256 0.708293
lowerback 11.2821 -0.495802 -4.33754
upperback 0.499421 -1.15236 0.907528
thorax -5.70637 -0.43693 3.58725
lowerneck -14.4925 0.419347 3.88839
upperneck 29.1122 -0.981023 2.01673
head 11.9662 0.293298 -0.0461101
rclavicle 1.0434e-013 1.01504e-014
rhumerus -28.0957 -18.3802 -82.4283
rradius 29.4317
rwrist -4.34431
rhand -32.6677 -1.11617
rfingers 7.12502
rthumb -5.89343 -31.0142
lclavicle 1.0434e-013 1.01504e-014
lhumerus -39.5807 1.63601 83.2783
lradius 86.1775
lwrist 60.7289
lhand -30.2968 29.9469
lfingers 7.12502
lthumb -3.60412 59.8961
rfemur -53.4504 5.93397 9.46945
rtibia 72.1117
rfoot -14.064 24.7823
rtoes -1.85297
lfemur 8.31937 -9.97646 -16.8975
ltibia 16.9373
lfoot -33.5228 -10.492
ltoes -8.3956
321
root 6.22968 17.4141 13.3805 10.1559 21.6707 0.625831
lowerback 11.6389 -0.438331 -4.26898
upperback 0.639732 -1.07959 0.902141
thorax -5.76582 -0.403371 3.53722
lowerneck -14.5423 0.401178 3.87557
upperneck 29.0567 -0.974134 1.91381
head 11.953 0.280226 -0.08182
rclavicle 3.47003e-014 -2.82274e-014
rhumerus -27.8854 -18.3176 -82.5044
rradius 29.3314
rwrist -4.29279
rhand -32.7258 -1.02118
rfingers 7.12502
rthumb -5.94944 -30.9176
lclavicle 3.47003e-014 -2.82274e-014
lhumerus -39.5743 0.968385 84.0357
lradius 85.2854
lwrist 59.926
lhand -30.4743 30.5025
lfingers 7.12502
lthumb -3.77545 60.4488
rfemur -53.8347 6.07154 9.48929
rtibia 72.4321
rfoot -14.1541 24.7943
rtoes -1.93892
lfemur 7.3208 -9.22929 -16.4867
ltibia 19.365
lfoot -32.873 -11.9873
ltoes -7.51634
